<mxfile host="Electron" agent="Mozilla/5.0 (X11; Linux x86_64) AppleWebKit/537.36 (KHTML, like Gecko) draw.io/24.7.17 Chrome/128.0.6613.186 Electron/32.2.2 Safari/537.36" version="24.7.17">
  <diagram name="Page-1" id="n4YTPFiaNwmfkghKdESe">
    <mxGraphModel dx="2074" dy="1128" grid="1" gridSize="10" guides="1" tooltips="1" connect="1" arrows="1" fold="1" page="1" pageScale="1" pageWidth="720" pageHeight="600" math="0" shadow="0">
      <root>
        <mxCell id="0" />
        <mxCell id="1" parent="0" />
        <mxCell id="MU9g39NuWjS2vlEsyIcT-1" style="edgeStyle=orthogonalEdgeStyle;rounded=0;orthogonalLoop=1;jettySize=auto;html=1;exitX=1;exitY=0.5;exitDx=0;exitDy=0;entryX=0.5;entryY=0;entryDx=0;entryDy=0;" edge="1" parent="1" source="MU9g39NuWjS2vlEsyIcT-2" target="MU9g39NuWjS2vlEsyIcT-5">
          <mxGeometry relative="1" as="geometry" />
        </mxCell>
        <mxCell id="MU9g39NuWjS2vlEsyIcT-2" value="Loading" style="rounded=1;whiteSpace=wrap;html=1;fontSize=12;glass=0;strokeWidth=1;shadow=0;fillColor=#dae8fc;strokeColor=#6c8ebf;" vertex="1" parent="1">
          <mxGeometry x="140" y="40" width="80" height="40" as="geometry" />
        </mxCell>
        <mxCell id="MU9g39NuWjS2vlEsyIcT-3" value="success" style="edgeStyle=orthogonalEdgeStyle;rounded=0;orthogonalLoop=1;jettySize=auto;html=1;exitX=0.5;exitY=1;exitDx=0;exitDy=0;entryX=0.5;entryY=0;entryDx=0;entryDy=0;" edge="1" parent="1" source="MU9g39NuWjS2vlEsyIcT-5" target="MU9g39NuWjS2vlEsyIcT-7">
          <mxGeometry relative="1" as="geometry" />
        </mxCell>
        <mxCell id="MU9g39NuWjS2vlEsyIcT-4" value="failure" style="edgeStyle=orthogonalEdgeStyle;rounded=0;orthogonalLoop=1;jettySize=auto;html=1;exitX=0;exitY=0.5;exitDx=0;exitDy=0;entryX=1;entryY=0.5;entryDx=0;entryDy=0;" edge="1" parent="1" source="MU9g39NuWjS2vlEsyIcT-5" target="MU9g39NuWjS2vlEsyIcT-29">
          <mxGeometry relative="1" as="geometry">
            <mxPoint x="160" y="140" as="targetPoint" />
          </mxGeometry>
        </mxCell>
        <mxCell id="MU9g39NuWjS2vlEsyIcT-5" value="" style="rhombus;whiteSpace=wrap;html=1;shadow=0;fontFamily=Helvetica;fontSize=12;align=center;strokeWidth=1;spacing=6;spacingTop=-4;fillColor=#ffe6cc;strokeColor=#d79b00;" vertex="1" parent="1">
          <mxGeometry x="240" y="120" width="40" height="40" as="geometry" />
        </mxCell>
        <mxCell id="MU9g39NuWjS2vlEsyIcT-6" style="edgeStyle=orthogonalEdgeStyle;rounded=0;orthogonalLoop=1;jettySize=auto;html=1;exitX=0.5;exitY=1;exitDx=0;exitDy=0;entryX=0.5;entryY=0;entryDx=0;entryDy=0;" edge="1" parent="1" source="MU9g39NuWjS2vlEsyIcT-7" target="MU9g39NuWjS2vlEsyIcT-10">
          <mxGeometry relative="1" as="geometry" />
        </mxCell>
        <mxCell id="MU9g39NuWjS2vlEsyIcT-7" value="Loaded" style="rounded=0;whiteSpace=wrap;html=1;fillColor=#d5e8d4;strokeColor=#82b366;" vertex="1" parent="1">
          <mxGeometry x="220" y="200" width="80" height="40" as="geometry" />
        </mxCell>
        <mxCell id="MU9g39NuWjS2vlEsyIcT-8" value="reset" style="edgeStyle=orthogonalEdgeStyle;rounded=0;orthogonalLoop=1;jettySize=auto;html=1;exitX=0;exitY=0.5;exitDx=0;exitDy=0;entryX=0;entryY=0.5;entryDx=0;entryDy=0;" edge="1" parent="1" source="MU9g39NuWjS2vlEsyIcT-10" target="MU9g39NuWjS2vlEsyIcT-28">
          <mxGeometry relative="1" as="geometry">
            <Array as="points">
              <mxPoint x="200" y="300" />
              <mxPoint x="200" y="460" />
            </Array>
          </mxGeometry>
        </mxCell>
        <mxCell id="MU9g39NuWjS2vlEsyIcT-9" value="true or false" style="edgeStyle=orthogonalEdgeStyle;rounded=0;orthogonalLoop=1;jettySize=auto;html=1;exitX=0.5;exitY=1;exitDx=0;exitDy=0;entryX=0;entryY=0.5;entryDx=0;entryDy=0;" edge="1" parent="1" source="MU9g39NuWjS2vlEsyIcT-10" target="MU9g39NuWjS2vlEsyIcT-14">
          <mxGeometry x="-0.2" relative="1" as="geometry">
            <mxPoint as="offset" />
          </mxGeometry>
        </mxCell>
        <mxCell id="MU9g39NuWjS2vlEsyIcT-10" value="" style="rhombus;whiteSpace=wrap;html=1;shadow=0;fontFamily=Helvetica;fontSize=12;align=center;strokeWidth=1;spacing=6;spacingTop=-4;fillColor=#ffe6cc;strokeColor=#d79b00;" vertex="1" parent="1">
          <mxGeometry x="240" y="280" width="40" height="40" as="geometry" />
        </mxCell>
        <mxCell id="MU9g39NuWjS2vlEsyIcT-11" style="edgeStyle=orthogonalEdgeStyle;rounded=0;orthogonalLoop=1;jettySize=auto;html=1;exitX=0;exitY=0.5;exitDx=0;exitDy=0;entryX=0.5;entryY=1;entryDx=0;entryDy=0;" edge="1" parent="1" source="MU9g39NuWjS2vlEsyIcT-12" target="MU9g39NuWjS2vlEsyIcT-2">
          <mxGeometry relative="1" as="geometry">
            <Array as="points">
              <mxPoint x="40" y="540" />
              <mxPoint x="40" y="100" />
              <mxPoint x="180" y="100" />
            </Array>
          </mxGeometry>
        </mxCell>
        <mxCell id="MU9g39NuWjS2vlEsyIcT-12" value="Reset" style="rounded=1;whiteSpace=wrap;html=1;fontSize=12;glass=0;strokeWidth=1;shadow=0;fillColor=#dae8fc;strokeColor=#6c8ebf;" vertex="1" parent="1">
          <mxGeometry x="300" y="520" width="80" height="40" as="geometry" />
        </mxCell>
        <mxCell id="MU9g39NuWjS2vlEsyIcT-13" style="edgeStyle=orthogonalEdgeStyle;rounded=0;orthogonalLoop=1;jettySize=auto;html=1;exitX=1;exitY=0.5;exitDx=0;exitDy=0;entryX=0.5;entryY=1;entryDx=0;entryDy=0;" edge="1" parent="1" source="MU9g39NuWjS2vlEsyIcT-14" target="MU9g39NuWjS2vlEsyIcT-17">
          <mxGeometry relative="1" as="geometry" />
        </mxCell>
        <mxCell id="MU9g39NuWjS2vlEsyIcT-14" value="Answering" style="rounded=1;whiteSpace=wrap;html=1;fontSize=12;glass=0;strokeWidth=1;shadow=0;fillColor=#dae8fc;strokeColor=#6c8ebf;" vertex="1" parent="1">
          <mxGeometry x="300" y="360" width="80" height="40" as="geometry" />
        </mxCell>
        <mxCell id="MU9g39NuWjS2vlEsyIcT-15" value="display result" style="edgeStyle=orthogonalEdgeStyle;rounded=0;orthogonalLoop=1;jettySize=auto;html=1;exitX=0.5;exitY=0;exitDx=0;exitDy=0;entryX=0.5;entryY=1;entryDx=0;entryDy=0;" edge="1" parent="1" source="MU9g39NuWjS2vlEsyIcT-17" target="MU9g39NuWjS2vlEsyIcT-19">
          <mxGeometry relative="1" as="geometry" />
        </mxCell>
        <mxCell id="MU9g39NuWjS2vlEsyIcT-16" style="edgeStyle=orthogonalEdgeStyle;rounded=0;orthogonalLoop=1;jettySize=auto;html=1;exitX=1;exitY=0.5;exitDx=0;exitDy=0;entryX=1;entryY=0.5;entryDx=0;entryDy=0;" edge="1" parent="1" source="MU9g39NuWjS2vlEsyIcT-17" target="MU9g39NuWjS2vlEsyIcT-28">
          <mxGeometry relative="1" as="geometry">
            <Array as="points">
              <mxPoint x="480" y="300" />
              <mxPoint x="480" y="460" />
            </Array>
          </mxGeometry>
        </mxCell>
        <mxCell id="MU9g39NuWjS2vlEsyIcT-17" value="" style="rhombus;whiteSpace=wrap;html=1;shadow=0;fontFamily=Helvetica;fontSize=12;align=center;strokeWidth=1;spacing=6;spacingTop=-4;fillColor=#ffe6cc;strokeColor=#d79b00;" vertex="1" parent="1">
          <mxGeometry x="400" y="280" width="40" height="40" as="geometry" />
        </mxCell>
        <mxCell id="MU9g39NuWjS2vlEsyIcT-18" style="edgeStyle=orthogonalEdgeStyle;rounded=0;orthogonalLoop=1;jettySize=auto;html=1;exitX=0.5;exitY=0;exitDx=0;exitDy=0;entryX=0.5;entryY=1;entryDx=0;entryDy=0;" edge="1" parent="1" source="MU9g39NuWjS2vlEsyIcT-19" target="MU9g39NuWjS2vlEsyIcT-23">
          <mxGeometry relative="1" as="geometry" />
        </mxCell>
        <mxCell id="MU9g39NuWjS2vlEsyIcT-19" value="Answered" style="rounded=0;whiteSpace=wrap;html=1;fillColor=#d5e8d4;strokeColor=#82b366;" vertex="1" parent="1">
          <mxGeometry x="380" y="200" width="80" height="40" as="geometry" />
        </mxCell>
        <mxCell id="MU9g39NuWjS2vlEsyIcT-20" value="no more question" style="edgeStyle=orthogonalEdgeStyle;rounded=0;orthogonalLoop=1;jettySize=auto;html=1;exitX=0.5;exitY=0;exitDx=0;exitDy=0;entryX=0;entryY=0.5;entryDx=0;entryDy=0;" edge="1" parent="1" source="MU9g39NuWjS2vlEsyIcT-23" target="MU9g39NuWjS2vlEsyIcT-25">
          <mxGeometry x="-0.5" relative="1" as="geometry">
            <mxPoint as="offset" />
          </mxGeometry>
        </mxCell>
        <mxCell id="MU9g39NuWjS2vlEsyIcT-21" value="reset" style="edgeStyle=orthogonalEdgeStyle;rounded=0;orthogonalLoop=1;jettySize=auto;html=1;exitX=1;exitY=0.5;exitDx=0;exitDy=0;" edge="1" parent="1" source="MU9g39NuWjS2vlEsyIcT-23">
          <mxGeometry x="0.3333" relative="1" as="geometry">
            <mxPoint x="360" y="460" as="targetPoint" />
            <Array as="points">
              <mxPoint x="480" y="140" />
              <mxPoint x="480" y="460" />
            </Array>
            <mxPoint as="offset" />
          </mxGeometry>
        </mxCell>
        <mxCell id="MU9g39NuWjS2vlEsyIcT-22" value="next&lt;div&gt;question&lt;/div&gt;" style="edgeStyle=orthogonalEdgeStyle;rounded=0;orthogonalLoop=1;jettySize=auto;html=1;exitX=0;exitY=0.5;exitDx=0;exitDy=0;entryX=0.5;entryY=0;entryDx=0;entryDy=0;" edge="1" parent="1" source="MU9g39NuWjS2vlEsyIcT-23" target="MU9g39NuWjS2vlEsyIcT-14">
          <mxGeometry relative="1" as="geometry">
            <mxPoint as="offset" />
          </mxGeometry>
        </mxCell>
        <mxCell id="MU9g39NuWjS2vlEsyIcT-23" value="" style="rhombus;whiteSpace=wrap;html=1;shadow=0;fontFamily=Helvetica;fontSize=12;align=center;strokeWidth=1;spacing=6;spacingTop=-4;fillColor=#ffe6cc;strokeColor=#d79b00;" vertex="1" parent="1">
          <mxGeometry x="400" y="120" width="40" height="40" as="geometry" />
        </mxCell>
        <mxCell id="MU9g39NuWjS2vlEsyIcT-24" style="edgeStyle=orthogonalEdgeStyle;rounded=0;orthogonalLoop=1;jettySize=auto;html=1;exitX=1;exitY=0.5;exitDx=0;exitDy=0;entryX=0.5;entryY=0;entryDx=0;entryDy=0;" edge="1" parent="1" source="MU9g39NuWjS2vlEsyIcT-25" target="MU9g39NuWjS2vlEsyIcT-33">
          <mxGeometry relative="1" as="geometry" />
        </mxCell>
        <mxCell id="MU9g39NuWjS2vlEsyIcT-25" value="Finished" style="rounded=1;whiteSpace=wrap;html=1;fontSize=12;glass=0;strokeWidth=1;shadow=0;fillColor=#dae8fc;strokeColor=#6c8ebf;" vertex="1" parent="1">
          <mxGeometry x="460" y="40" width="80" height="40" as="geometry" />
        </mxCell>
        <mxCell id="MU9g39NuWjS2vlEsyIcT-26" value="reset" style="edgeStyle=orthogonalEdgeStyle;rounded=0;orthogonalLoop=1;jettySize=auto;html=1;entryX=0;entryY=0.5;entryDx=0;entryDy=0;exitX=0.5;exitY=1;exitDx=0;exitDy=0;" edge="1" parent="1" source="MU9g39NuWjS2vlEsyIcT-29" target="MU9g39NuWjS2vlEsyIcT-28">
          <mxGeometry relative="1" as="geometry">
            <mxPoint x="100" y="190" as="sourcePoint" />
          </mxGeometry>
        </mxCell>
        <mxCell id="MU9g39NuWjS2vlEsyIcT-27" style="edgeStyle=orthogonalEdgeStyle;rounded=0;orthogonalLoop=1;jettySize=auto;html=1;exitX=0.5;exitY=1;exitDx=0;exitDy=0;entryX=0.5;entryY=0;entryDx=0;entryDy=0;" edge="1" parent="1" source="MU9g39NuWjS2vlEsyIcT-28" target="MU9g39NuWjS2vlEsyIcT-12">
          <mxGeometry relative="1" as="geometry" />
        </mxCell>
        <mxCell id="MU9g39NuWjS2vlEsyIcT-28" value="" style="rhombus;whiteSpace=wrap;html=1;shadow=0;fontFamily=Helvetica;fontSize=12;align=center;strokeWidth=1;spacing=6;spacingTop=-4;fillColor=#fff2cc;strokeColor=#d6b656;" vertex="1" parent="1">
          <mxGeometry x="320" y="440" width="40" height="40" as="geometry" />
        </mxCell>
        <mxCell id="MU9g39NuWjS2vlEsyIcT-29" value="Loading error" style="rounded=0;whiteSpace=wrap;html=1;fillColor=#d5e8d4;strokeColor=#82b366;" vertex="1" parent="1">
          <mxGeometry x="60" y="120" width="80" height="40" as="geometry" />
        </mxCell>
        <mxCell id="MU9g39NuWjS2vlEsyIcT-36" style="edgeStyle=orthogonalEdgeStyle;rounded=0;orthogonalLoop=1;jettySize=auto;html=1;exitX=1;exitY=0.5;exitDx=0;exitDy=0;entryX=0;entryY=0.5;entryDx=0;entryDy=0;" edge="1" parent="1" source="MU9g39NuWjS2vlEsyIcT-31" target="MU9g39NuWjS2vlEsyIcT-2">
          <mxGeometry relative="1" as="geometry" />
        </mxCell>
        <mxCell id="MU9g39NuWjS2vlEsyIcT-31" value="" style="ellipse;fillColor=#f5f5f5;html=1;fontColor=#333333;strokeColor=#666666;" vertex="1" parent="1">
          <mxGeometry x="80" y="50" width="20" height="20" as="geometry" />
        </mxCell>
        <mxCell id="MU9g39NuWjS2vlEsyIcT-32" value="reset" style="edgeStyle=orthogonalEdgeStyle;rounded=0;orthogonalLoop=1;jettySize=auto;html=1;exitX=0.5;exitY=1;exitDx=0;exitDy=0;entryX=1;entryY=0.5;entryDx=0;entryDy=0;" edge="1" parent="1" source="MU9g39NuWjS2vlEsyIcT-33" target="MU9g39NuWjS2vlEsyIcT-28">
          <mxGeometry relative="1" as="geometry" />
        </mxCell>
        <mxCell id="MU9g39NuWjS2vlEsyIcT-33" value="" style="rhombus;whiteSpace=wrap;html=1;shadow=0;fontFamily=Helvetica;fontSize=12;align=center;strokeWidth=1;spacing=6;spacingTop=-4;fillColor=#ffe6cc;strokeColor=#d79b00;" vertex="1" parent="1">
          <mxGeometry x="560" y="120" width="40" height="40" as="geometry" />
        </mxCell>
        <mxCell id="MU9g39NuWjS2vlEsyIcT-34" value="" style="shape=mxgraph.sysml.actFinal;html=1;verticalLabelPosition=bottom;labelBackgroundColor=#ffffff;verticalAlign=top;fillColor=#f5f5f5;fontColor=#333333;strokeColor=#666666;" vertex="1" parent="1">
          <mxGeometry x="660" y="130" width="20" height="20" as="geometry" />
        </mxCell>
        <mxCell id="MU9g39NuWjS2vlEsyIcT-35" value="end" style="edgeStyle=orthogonalEdgeStyle;rounded=0;orthogonalLoop=1;jettySize=auto;html=1;exitX=1;exitY=0.5;exitDx=0;exitDy=0;entryX=0;entryY=0.5;entryDx=0;entryDy=0;entryPerimeter=0;" edge="1" parent="1" source="MU9g39NuWjS2vlEsyIcT-33" target="MU9g39NuWjS2vlEsyIcT-34">
          <mxGeometry relative="1" as="geometry" />
        </mxCell>
      </root>
    </mxGraphModel>
  </diagram>
</mxfile>
